<svg aria-hidden="true" style="width:0;height:0;position:absolute;overflow:hidden" xmlns="http://www.w3.org/2000/svg"><defs><symbol id="icon-telegram" viewBox="0 0 34 32"><path d="M31.246 1.679c-.406.03-.804.125-1.179.282h-.005c-.36.143-2.072.863-4.674 1.954l-9.325 3.927c-6.691 2.817-13.268 5.591-13.268 5.591l.078-.03s-.453.149-.927.474c-.293.186-.544.43-.74.716-.232.341-.419.863-.35 1.402.114.912.705 1.459 1.129 1.761.429.306.839.448.839.448h.01l6.168 2.078c.277.888 1.88 6.158 2.265 7.372.227.725.448 1.178.725 1.525.134.177.291.325.479.443.098.057.202.102.311.134l-.063-.015c.019.005.034.02.048.025.051.014.085.019.149.029.976.296 1.761-.311 1.761-.311l.044-.035 3.642-3.316 6.104 4.682.139.059c1.272.558 2.561.248 3.241-.301.686-.552.952-1.258.952-1.258l.044-.114L33.56 5.038c.134-.596.168-1.155.02-1.696a2.283 2.283 0 0 0-.987-1.323 2.365 2.365 0 0 0-1.348-.341zm-.127 2.589c-.005.08.01.071-.025.224v.014l-4.672 23.912c-.02.034-.054.109-.148.183-.099.078-.177.128-.587-.035l-7.465-5.723-4.51 4.11.947-6.051L26.856 9.534c.503-.467.335-.566.335-.566.035-.573-.759-.168-.759-.168l-15.38 9.528-.005-.025-7.391-2.491a.25.25 0 0 0 .038-.015l.04-.02.039-.014s6.582-2.774 13.273-5.591c3.35-1.411 6.725-2.832 9.321-3.928 1.54-.648 3.081-1.292 4.623-1.933.104-.04.054-.04.129-.04V4.27z"/></symbol><symbol id="icon-facebook" viewBox="0 0 32 32"><path d="M13.912 11.099v2.203h-1.613v2.693h1.613V24h3.315v-8.005h2.224s.21-1.291.31-2.704h-2.522v-1.84c0-.277.362-.646.72-.646h1.805V8h-2.456c-3.478 0-3.397 2.696-3.397 3.099z"/><path d="M6.4 3.2a3.2 3.2 0 0 0-3.2 3.2v19.2a3.2 3.2 0 0 0 3.2 3.2h19.2a3.2 3.2 0 0 0 3.2-3.2V6.4a3.2 3.2 0 0 0-3.2-3.2H6.4zm0-3.2h19.2A6.4 6.4 0 0 1 32 6.4v19.2a6.4 6.4 0 0 1-6.4 6.4H6.4A6.4 6.4 0 0 1 0 25.6V6.4A6.4 6.4 0 0 1 6.4 0z"/></symbol><symbol id="icon-mitka" viewBox="0 0 20 32"><path d="M10 .018c-5.524 0-10 4.458-10 9.98 0 9.548 10 22 10 22s10-12.454 10-22c0-5.52-4.476-9.98-10-9.98zm0 15.5a5.4 5.4 0 0 1 0-10.8 5.4 5.4 0 0 1 0 10.8z"/></symbol><symbol id="icon-mobil" viewBox="0 0 19 32"><path d="M15.6 0a3.6 3.6 0 0 1 3.6 3.6v24.8a3.6 3.6 0 0 1-3.6 3.6h-12A3.6 3.6 0 0 1 0 28.4V3.6A3.6 3.6 0 0 1 3.6 0h12zm0 2.4h-12a1.2 1.2 0 0 0-1.2 1.2v24.8c0 .662.538 1.2 1.2 1.2h12a1.2 1.2 0 0 0 1.2-1.2V3.6a1.2 1.2 0 0 0-1.2-1.2zm-4.002 22.4h.002a1.2 1.2 0 0 1 .002 2.4l-4 .006H7.6a1.2 1.2 0 0 1-.002-2.4l4-.006z"/></symbol><symbol id="icon-instagram" viewBox="0 0 32 32"><path d="M31.969 9.408c-.075-1.7-.35-2.869-.744-3.882a7.806 7.806 0 0 0-1.851-2.838A7.867 7.867 0 0 0 26.542.844C25.523.45 24.36.175 22.66.1 20.947.019 20.403 0 16.059 0s-4.888.019-6.595.094c-1.7.075-2.869.35-3.882.744a7.803 7.803 0 0 0-2.838 1.85A7.867 7.867 0 0 0 .9 5.52C.506 6.539.231 7.702.156 9.402c-.081 1.713-.1 2.257-.1 6.601s.019 4.888.094 6.595c.075 1.7.35 2.869.744 3.882a7.895 7.895 0 0 0 1.85 2.838 7.867 7.867 0 0 0 2.832 1.844c1.019.394 2.182.669 3.882.744 1.706.075 2.25.094 6.595.094s4.888-.019 6.595-.094c1.7-.075 2.869-.35 3.882-.744a8.184 8.184 0 0 0 4.682-4.682c.394-1.019.669-2.182.744-3.882.075-1.707.094-2.251.094-6.595s-.006-4.888-.081-6.595zm-2.882 13.065c-.069 1.563-.331 2.407-.55 2.969a5.31 5.31 0 0 1-3.038 3.038c-.563.219-1.413.481-2.969.55-1.688.075-2.194.094-6.464.094s-4.782-.019-6.464-.094c-1.563-.069-2.407-.331-2.969-.55a4.926 4.926 0 0 1-1.838-1.194 4.974 4.974 0 0 1-1.194-1.838c-.219-.563-.481-1.413-.55-2.969-.075-1.688-.094-2.194-.094-6.464s.019-4.782.094-6.464c.069-1.563.331-2.407.55-2.969a4.868 4.868 0 0 1 1.2-1.838A4.974 4.974 0 0 1 6.639 3.55c.563-.219 1.413-.481 2.969-.55 1.688-.075 2.194-.094 6.464-.094 4.276 0 4.782.019 6.464.094 1.563.069 2.407.331 2.969.55a4.914 4.914 0 0 1 1.838 1.194 4.974 4.974 0 0 1 1.194 1.838c.219.563.481 1.413.55 2.969.075 1.688.094 2.194.094 6.464s-.019 4.77-.094 6.458z"/><path d="M16.059 7.783c-4.538 0-8.22 3.682-8.22 8.22s3.682 8.22 8.22 8.22c4.539 0 8.22-3.682 8.22-8.22s-3.682-8.22-8.22-8.22zm0 13.552a5.333 5.333 0 0 1 0-10.664 5.333 5.333 0 0 1 0 10.664zM26.524 7.458a1.919 1.919 0 1 1-3.838 0 1.919 1.919 0 0 1 3.838 0z"/></symbol><symbol id="icon-right-arrow" viewBox="0 0 53 32"><path d="m38.208 1.042-2.514 2.514 10.667 10.667H0v3.556h46.361L35.694 28.446l2.514 2.514 14.958-14.958L38.208 1.044z"/></symbol><symbol id="icon-left-arrow" viewBox="0 0 55 32"><path d="M53.481 14.222H7.122L17.789 3.555l-2.517-2.514L.316 15.999l14.958 14.958 2.516-2.514L7.123 17.776h46.359V14.22z"/></symbol></defs></svg>