<svg aria-hidden="true" style="position: absolute; width: 0; height: 0; overflow: hidden;" version="1.1" xmlns="http://www.w3.org/2000/svg" xmlns:xlink="http://www.w3.org/1999/xlink">
<defs>
    <symbol id="icon-telegram" viewBox="0 0 34 32">
        <path d="M31.246 1.679c-0.406 0.030-0.804 0.125-1.179 0.282h-0.005c-0.36 0.143-2.072 0.863-4.674 1.954l-9.325 3.927c-6.691 2.817-13.268 5.591-13.268 5.591l0.078-0.030c0 0-0.453 0.149-0.927 0.474-0.293 0.186-0.544 0.43-0.74 0.716-0.232 0.341-0.419 0.863-0.35 1.402 0.114 0.912 0.705 1.459 1.129 1.761 0.429 0.306 0.839 0.448 0.839 0.448h0.010l6.168 2.078c0.277 0.888 1.88 6.158 2.265 7.372 0.227 0.725 0.448 1.178 0.725 1.525 0.134 0.177 0.291 0.325 0.479 0.443 0.098 0.057 0.202 0.102 0.311 0.134l-0.063-0.015c0.019 0.005 0.034 0.020 0.048 0.025 0.051 0.014 0.085 0.019 0.149 0.029 0.976 0.296 1.761-0.311 1.761-0.311l0.044-0.035 3.642-3.316 6.104 4.682 0.139 0.059c1.272 0.558 2.561 0.248 3.241-0.301 0.686-0.552 0.952-1.258 0.952-1.258l0.044-0.114 4.717-24.163c0.134-0.596 0.168-1.155 0.020-1.696-0.152-0.548-0.504-1.020-0.987-1.323-0.405-0.246-0.874-0.365-1.348-0.341v0zM31.119 4.268c-0.005 0.080 0.010 0.071-0.025 0.224v0.014l-4.672 23.912c-0.020 0.034-0.054 0.109-0.148 0.183-0.099 0.078-0.177 0.128-0.587-0.035l-7.465-5.723-4.51 4.11 0.947-6.051 12.197-11.368c0.503-0.467 0.335-0.566 0.335-0.566 0.035-0.573-0.759-0.168-0.759-0.168l-15.38 9.528-0.005-0.025-7.391-2.491c0.013-0.004 0.026-0.009 0.038-0.015l0.040-0.020 0.039-0.014c0 0 6.582-2.774 13.273-5.591 3.35-1.411 6.725-2.832 9.321-3.928 1.54-0.648 3.081-1.292 4.623-1.933 0.104-0.040 0.054-0.040 0.129-0.040v-0.001z"></path>
    </symbol>
    <symbol id="icon-facebook" viewBox="0 0 32 32">
        <path d="M13.912 11.099v2.203h-1.613v2.693h1.613v8.005h3.315v-8.005h2.224s0.21-1.291 0.31-2.704h-2.522v-1.84c0-0.277 0.362-0.646 0.72-0.646h1.805v-2.805h-2.456c-3.478 0-3.397 2.696-3.397 3.099z"></path>
        <path d="M6.4 3.2c-1.767 0-3.2 1.433-3.2 3.2v0 19.2c0 1.767 1.433 3.2 3.2 3.2v0h19.2c1.767 0 3.2-1.433 3.2-3.2v0-19.2c0-1.767-1.433-3.2-3.2-3.2v0h-19.2zM6.4 0h19.2c3.535 0 6.4 2.865 6.4 6.4v0 19.2c0 3.535-2.865 6.4-6.4 6.4v0h-19.2c-3.535 0-6.4-2.865-6.4-6.4v0-19.2c0-3.535 2.865-6.4 6.4-6.4v0z"></path>
    </symbol>
    <symbol id="icon-mitka" viewBox="0 0 20 32">
        <path d="M10 0.018c-5.524 0-10 4.458-10 9.98 0 9.548 10 22 10 22s10-12.454 10-22c0-5.52-4.476-9.98-10-9.98zM10 15.518c-2.982 0-5.4-2.418-5.4-5.4s2.418-5.4 5.4-5.4v0c2.982 0 5.4 2.418 5.4 5.4s-2.418 5.4-5.4 5.4v0z"></path>
    </symbol>
    <symbol id="icon-mobil" viewBox="0 0 19 32">
        <path d="M15.6 0c1.988 0 3.6 1.612 3.6 3.6v0 24.8c0 1.988-1.612 3.6-3.6 3.6v0h-12c-1.988 0-3.6-1.612-3.6-3.6v0-24.8c0-1.988 1.612-3.6 3.6-3.6v0h12zM15.6 2.4h-12c-0.663 0-1.2 0.537-1.2 1.2v0 24.8c0 0.662 0.538 1.2 1.2 1.2h12c0.663 0 1.2-0.537 1.2-1.2v0-24.8c0-0.663-0.537-1.2-1.2-1.2v0zM11.598 24.8c0 0 0.001 0 0.002 0 0.663 0 1.2 0.537 1.2 1.2s-0.536 1.199-1.198 1.2l-4 0.006c-0 0-0.001 0-0.002 0-0.663 0-1.2-0.537-1.2-1.2s0.536-1.199 1.198-1.2l4-0.006z"></path>
    </symbol>
    <symbol id="icon-instagram" viewBox="0 0 32 32">
        <path d="M31.969 9.408c-0.075-1.7-0.35-2.869-0.744-3.882-0.406-1.075-1.032-2.038-1.851-2.838-0.8-0.813-1.769-1.444-2.832-1.844-1.019-0.394-2.182-0.669-3.882-0.744-1.713-0.081-2.257-0.1-6.601-0.1s-4.888 0.019-6.595 0.094c-1.7 0.075-2.869 0.35-3.882 0.744-1.075 0.406-2.038 1.031-2.838 1.85-0.813 0.8-1.444 1.769-1.844 2.832-0.394 1.019-0.669 2.182-0.744 3.882-0.081 1.713-0.1 2.257-0.1 6.601s0.019 4.888 0.094 6.595c0.075 1.7 0.35 2.869 0.744 3.882 0.406 1.075 1.038 2.038 1.85 2.838 0.8 0.813 1.769 1.444 2.832 1.844 1.019 0.394 2.182 0.669 3.882 0.744 1.706 0.075 2.25 0.094 6.595 0.094s4.888-0.019 6.595-0.094c1.7-0.075 2.869-0.35 3.882-0.744 2.151-0.832 3.851-2.532 4.682-4.682 0.394-1.019 0.669-2.182 0.744-3.882 0.075-1.707 0.094-2.251 0.094-6.595s-0.006-4.888-0.081-6.595zM29.087 22.473c-0.069 1.563-0.331 2.407-0.55 2.969-0.538 1.394-1.644 2.5-3.038 3.038-0.563 0.219-1.413 0.481-2.969 0.55-1.688 0.075-2.194 0.094-6.464 0.094s-4.782-0.019-6.464-0.094c-1.563-0.069-2.407-0.331-2.969-0.55-0.694-0.256-1.325-0.663-1.838-1.194-0.531-0.519-0.938-1.144-1.194-1.838-0.219-0.563-0.481-1.413-0.55-2.969-0.075-1.688-0.094-2.194-0.094-6.464s0.019-4.782 0.094-6.464c0.069-1.563 0.331-2.407 0.55-2.969 0.256-0.694 0.663-1.325 1.2-1.838 0.519-0.531 1.144-0.938 1.838-1.194 0.563-0.219 1.413-0.481 2.969-0.55 1.688-0.075 2.194-0.094 6.464-0.094 4.276 0 4.782 0.019 6.464 0.094 1.563 0.069 2.407 0.331 2.969 0.55 0.694 0.256 1.325 0.662 1.838 1.194 0.531 0.519 0.938 1.144 1.194 1.838 0.219 0.563 0.481 1.413 0.55 2.969 0.075 1.688 0.094 2.194 0.094 6.464s-0.019 4.77-0.094 6.458z"></path>
        <path d="M16.059 7.783c-4.538 0-8.22 3.682-8.22 8.22s3.682 8.22 8.22 8.22c4.539 0 8.22-3.682 8.22-8.22s-3.682-8.22-8.22-8.22zM16.059 21.335c-2.944 0-5.332-2.388-5.332-5.332s2.388-5.332 5.332-5.332c2.944 0 5.332 2.388 5.332 5.332s-2.388 5.332-5.332 5.332z"></path>
        <path d="M26.524 7.458c0 1.060-0.859 1.919-1.919 1.919s-1.919-0.859-1.919-1.919c0-1.060 0.859-1.919 1.919-1.919s1.919 0.859 1.919 1.919z"></path>
    </symbol>
    <symbol id="icon-right-arrow" viewBox="0 0 53 32">
        <path d="M38.208 1.042l-2.514 2.514 10.667 10.667h-46.361v3.556h46.361l-10.667 10.667 2.514 2.514 14.958-14.958-14.958-14.958z"></path>
    </symbol>
    <symbol id="icon-left-arrow" viewBox="0 0 55 32">
        <path d="M53.481 14.222h-46.359l10.667-10.667-2.517-2.514-14.956 14.958 14.958 14.958 2.516-2.514-10.667-10.667h46.359v-3.556z"></path>
    </symbol>
    <symbol id="icon-close" viewBox="0 0 32 32">
<path stroke-linejoin="round" stroke-linecap="round" stroke-miterlimit="4" stroke-width="2" d="M27.429 3.428l-24 24"></path>
<path stroke-linejoin="round" stroke-linecap="round" stroke-miterlimit="4" stroke-width="2" d="M3.429 3.428l24 24"></path>
</symbol>
</defs>
</svg>
